<?xml version="1.0" standalone="no"?>
<!DOCTYPE svg PUBLIC "-//W3C//DTD SVG 20010904//EN"
 "http://www.w3.org/TR/2001/REC-SVG-20010904/DTD/svg10.dtd">
<svg version="1.0" xmlns="http://www.w3.org/2000/svg"
 width="1660.000000pt" height="1660.000000pt" viewBox="0 0 1660.000000 1660.000000"
 preserveAspectRatio="xMidYMid meet">
<metadata>
Created by potrace 1.14, written by Peter Selinger 2001-2017
</metadata>
<g transform="translate(0.000000,1660.000000) scale(0.100000,-0.100000)"
fill="#000000" stroke="none">
<path d="M7647 16485 c-44 -8 -113 -27 -155 -41 -93 -31 -305 -131 -368 -173
-25 -17 -47 -31 -50 -31 -8 0 -159 -103 -165 -113 -4 -5 -29 -13 -55 -17 -131
-21 -296 -121 -444 -269 -118 -119 -152 -178 -155 -269 -3 -105 39 -251 97
-336 l25 -36 31 62 c42 85 99 173 103 161 2 -5 39 -33 81 -62 l78 -52 62 17
c74 19 63 17 157 34 l74 14 65 -70 c182 -195 230 -277 248 -424 10 -77 9 -85
-15 -177 -43 -164 -127 -377 -212 -538 -84 -159 -268 -423 -368 -527 l-26 -27
-177 -3 c-109 -2 -180 1 -186 7 -59 67 -208 253 -239 300 -22 33 -59 75 -81
93 -23 17 -77 83 -121 145 -111 155 -105 146 -215 291 -174 227 -266 305 -294
249 -20 -41 2 -155 44 -230 34 -58 30 -59 -18 -5 -81 89 -199 201 -245 231
-47 31 -87 40 -98 21 -19 -31 8 -158 50 -240 15 -29 12 -28 -47 22 -35 30 -90
74 -123 98 -33 25 -62 48 -65 51 -3 3 -36 25 -75 48 -49 29 -79 41 -100 39
-28 -3 -30 -6 -31 -43 0 -43 25 -120 58 -174 l21 -33 -49 35 c-57 41 -196 122
-269 157 -47 22 -116 32 -130 18 -18 -17 -6 -76 33 -155 l29 -61 -86 43 c-313
155 -379 122 -232 -114 18 -30 27 -51 20 -48 -8 3 -78 31 -156 62 -199 77
-271 77 -258 -2 6 -39 44 -119 87 -180 l28 -42 -67 25 c-311 118 -463 136
-448 54 3 -16 9 -39 14 -52 11 -30 95 -154 130 -192 19 -21 21 -27 8 -23 -28
10 -217 63 -272 77 -109 26 -214 31 -239 11 -39 -33 33 -160 159 -279 37 -35
77 -68 91 -74 50 -23 20 -24 -78 -1 -207 46 -341 57 -382 30 -28 -19 -28 -42
0 -99 31 -60 148 -176 227 -224 31 -20 57 -38 57 -40 0 -3 -4 -3 -9 0 -5 3
-26 8 -47 12 -63 9 -96 14 -154 24 -111 18 -274 26 -330 16 -35 -6 -59 -18
-64 -33 -20 -51 136 -226 256 -288 20 -10 35 -22 33 -25 -2 -3 -32 -3 -67 0
-106 10 -330 5 -371 -9 -20 -7 -42 -21 -48 -32 -15 -29 27 -95 98 -152 32 -26
64 -52 72 -59 8 -7 41 -26 74 -44 l60 -32 -94 -1 c-203 -3 -317 -21 -349 -56
-20 -21 -20 -25 -7 -56 23 -53 140 -147 239 -193 60 -28 190 -66 227 -66 45 0
10 -15 -39 -16 -86 -3 -232 -13 -264 -19 -17 -2 -49 -6 -71 -9 -72 -9 -199
-37 -227 -52 -59 -31 -55 -71 14 -126 100 -81 209 -131 343 -158 50 -10 79
-19 65 -20 -14 -1 -32 -3 -40 -5 -26 -5 -84 -15 -125 -21 -81 -12 -306 -73
-359 -97 -64 -30 -93 -65 -77 -96 37 -68 248 -175 387 -195 33 -5 18 -14 -54
-31 -96 -22 -289 -88 -351 -119 -61 -32 -95 -68 -86 -95 17 -54 191 -143 329
-167 43 -8 82 -11 87 -8 5 3 9 1 9 -3 0 -5 -35 -19 -77 -32 -140 -41 -362
-134 -441 -184 -57 -37 -71 -72 -40 -104 32 -35 102 -68 205 -99 74 -22 109
-27 215 -27 70 -1 126 -2 125 -3 -1 -1 -60 -23 -132 -49 -141 -51 -361 -153
-455 -210 -33 -20 -72 -51 -85 -70 -22 -28 -24 -36 -14 -58 17 -38 135 -91
226 -102 11 -2 30 -6 41 -9 11 -4 41 -7 66 -8 l46 -1 -132 -66 c-73 -37 -170
-89 -216 -116 -46 -28 -93 -55 -105 -62 -44 -24 -161 -119 -178 -143 -31 -45
-32 -65 -3 -94 64 -63 234 -109 414 -110 l126 -1 -126 -71 c-287 -164 -500
-330 -525 -412 -14 -48 90 -106 230 -127 72 -12 219 -13 279 -4 32 5 61 8 63
5 3 -3 -23 -20 -57 -38 -35 -18 -70 -37 -79 -43 -9 -5 -71 -43 -137 -84 -103
-62 -308 -202 -324 -220 -3 -3 -38 -33 -78 -65 -136 -110 -194 -193 -161 -232
61 -73 326 -106 524 -65 50 10 91 18 92 17 1 -1 -34 -25 -78 -55 -76 -51 -361
-262 -385 -285 -6 -6 -40 -36 -75 -66 -102 -87 -274 -261 -302 -307 -38 -60
-42 -95 -14 -120 27 -25 99 -50 170 -60 97 -13 300 -7 372 11 68 17 128 36
185 59 35 15 65 25 66 24 1 -1 -29 -27 -68 -57 -115 -90 -450 -365 -516 -423
-20 -18 -59 -52 -87 -77 -105 -93 -333 -324 -400 -406 -179 -219 -186 -290
-28 -321 42 -9 272 -9 343 0 132 15 341 94 499 189 l36 21 -30 -32 c-16 -18
-68 -72 -115 -120 -86 -88 -195 -204 -240 -257 -140 -163 -247 -300 -322 -414
-110 -166 -131 -247 -73 -281 66 -39 223 -42 375 -7 25 5 55 12 67 14 70 14
200 74 352 164 29 18 24 14 126 88 44 32 86 61 93 66 7 4 -9 -23 -35 -59 -175
-245 -284 -443 -291 -531 -4 -48 -2 -53 23 -70 57 -37 184 -29 365 25 213 64
355 158 591 391 59 58 104 99 100 90 -4 -8 -32 -67 -63 -130 -89 -181 -111
-272 -75 -308 23 -23 109 -23 191 0 222 61 364 155 548 363 104 116 140 169
272 400 54 94 101 177 107 185 12 21 448 777 472 820 10 19 61 107 112 195 51
88 160 277 243 420 121 210 161 272 211 321 33 33 61 58 61 54 0 -4 -13 -26
-29 -51 -67 -104 -450 -734 -531 -874 -10 -16 -66 -113 -125 -215 -267 -460
-472 -851 -563 -1070 -7 -19 -20 -48 -28 -65 -31 -67 -83 -244 -90 -303 -5
-50 -3 -67 11 -88 16 -25 20 -26 81 -21 36 4 85 15 110 26 l45 20 -29 -37
c-16 -20 -33 -53 -37 -72 -11 -49 -13 -148 -3 -163 6 -9 8 -8 8 4 0 9 6 21 13
27 12 11 13 8 8 -53 -1 -6 -48 -10 -119 -10 -64 -1 -148 -4 -186 -8 -250 -26
-539 -146 -739 -307 -118 -94 -121 -89 55 -90 155 -1 172 -2 288 -14 197 -21
369 -75 443 -140 l29 -25 -44 -22 c-326 -163 -630 -474 -787 -804 -51 -106
-65 -149 -58 -169 9 -23 34 -9 47 27 42 128 363 311 666 382 133 31 199 23
549 -65 257 -64 375 -81 416 -60 52 28 51 26 50 265 l-2 223 51 11 c65 14 65
14 50 -4 -11 -14 -10 -57 6 -180 2 -16 6 -54 10 -84 3 -30 7 -63 10 -74 2 -11
6 -45 9 -76 4 -31 8 -67 10 -81 5 -31 14 -102 20 -155 36 -283 50 -397 65
-510 5 -38 12 -95 15 -125 19 -158 22 -173 41 -187 10 -8 29 -11 40 -9 18 5
27 -3 49 -47 93 -178 240 -334 385 -408 229 -116 406 61 565 567 l38 121 96
18 c53 9 112 19 131 21 19 2 58 9 85 14 28 5 70 12 95 15 25 3 83 12 130 20
47 8 105 17 130 19 25 3 60 8 78 10 38 6 37 6 14 -36 -10 -18 -54 -100 -97
-183 -43 -82 -91 -174 -107 -202 -25 -45 -29 -63 -29 -120 3 -276 116 -430
322 -439 41 -2 100 3 130 10 l54 12 -1 -85 c-2 -205 59 -340 178 -391 70 -30
193 -31 272 -1 14 6 26 9 27 8 0 -1 2 -54 3 -117 8 -358 144 -462 508 -388 9
2 12 -10 10 -45 -7 -121 46 -256 128 -330 74 -66 130 -90 222 -93 99 -3 164
20 250 88 38 30 42 41 53 143 15 138 33 286 41 343 2 17 6 47 8 65 3 17 8 66
12 107 3 41 9 77 11 80 5 5 -5 -141 -11 -177 -2 -10 -7 -54 -11 -98 -4 -44 -8
-91 -10 -105 -1 -14 -6 -56 -9 -95 -4 -38 -9 -81 -11 -95 -2 -14 -6 -59 -9
-100 -4 -41 -9 -86 -12 -100 -10 -50 -6 -167 9 -217 29 -96 98 -178 187 -221
157 -75 371 -38 498 86 l29 28 44 -39 c86 -78 227 -125 339 -113 179 18 294
113 336 276 17 67 16 109 -6 305 -5 50 -12 124 -16 165 -3 41 -7 86 -10 100
-2 14 -7 57 -10 95 -3 39 -12 116 -18 172 -7 56 -9 100 -5 98 3 -3 9 -36 13
-74 4 -38 9 -80 11 -93 2 -13 6 -45 9 -73 4 -44 19 -166 31 -265 2 -19 7 -62
10 -95 6 -54 10 -64 48 -99 68 -63 137 -89 237 -90 72 -1 94 3 142 26 138 64
221 208 220 379 l-1 67 62 -15 c66 -15 185 -19 233 -7 50 12 105 44 140 82 19
21 34 42 34 47 0 6 6 22 14 37 27 51 37 121 36 255 l0 103 25 -10 c75 -28 216
-29 279 -1 77 33 141 119 161 216 11 52 21 178 18 223 -2 24 1 41 5 38 20 -12
82 -20 162 -20 74 0 94 3 142 27 124 61 188 190 194 392 2 78 1 82 -46 170
-26 50 -78 149 -115 220 -37 72 -81 154 -96 183 -16 29 -29 55 -29 58 0 3 17
3 38 0 20 -3 75 -10 122 -16 47 -6 146 -20 220 -31 74 -11 146 -22 160 -24 14
-2 41 -6 60 -10 19 -3 62 -10 95 -16 33 -6 104 -19 159 -30 54 -10 100 -19
101 -19 2 0 18 -46 35 -102 147 -477 274 -659 460 -662 143 -1 357 175 487
403 74 129 142 353 114 370 -7 5 -10 18 -7 32 3 13 8 35 10 49 18 98 47 247
51 260 2 8 7 31 9 50 3 19 21 114 41 210 37 183 38 185 55 278 14 76 18 98 30
158 6 28 13 63 16 79 3 16 7 32 10 36 2 4 0 19 -6 34 -10 26 -9 27 12 21 13
-3 28 -6 34 -6 7 0 10 -70 10 -222 0 -167 3 -222 12 -220 7 1 12 -4 12 -12 0
-8 12 -24 26 -35 43 -34 149 -22 429 47 379 95 414 99 547 68 308 -71 608
-241 675 -381 17 -36 53 -49 53 -19 0 27 -51 144 -104 242 -164 299 -442 576
-719 716 -32 16 -60 32 -62 37 -8 12 74 65 136 89 30 11 83 27 119 36 88 21
98 23 147 29 23 3 57 7 75 10 56 8 198 15 312 16 l109 0 -44 43 c-142 136
-371 257 -599 317 -119 30 -256 46 -385 45 l-111 -2 3 64 c2 68 -2 73 -68 81
-4 1 -10 16 -13 35 -4 19 -17 50 -30 69 l-24 35 55 -19 c70 -24 136 -25 154
-3 31 37 13 168 -43 314 -70 184 -230 520 -347 730 -17 30 -34 62 -38 70 -14
30 -324 573 -362 633 -21 34 -82 136 -136 227 -54 91 -170 282 -258 425 -88
143 -162 265 -165 270 -3 6 21 -15 54 -45 48 -45 81 -92 175 -255 64 -110 166
-285 226 -390 98 -168 404 -699 583 -1010 333 -579 349 -603 510 -766 148
-150 240 -209 422 -270 160 -54 245 -48 259 18 9 44 -34 170 -104 309 l-55
111 117 -117 c65 -64 135 -130 157 -146 21 -16 41 -31 44 -34 19 -21 147 -104
205 -133 194 -98 462 -144 539 -93 27 17 28 21 23 73 -6 60 -67 194 -138 303
-23 36 -58 90 -78 120 -19 30 -38 57 -41 60 -10 10 -70 98 -70 104 0 4 28 -16
63 -43 203 -159 433 -269 617 -296 25 -4 59 -9 75 -11 104 -18 238 -1 278 35
79 68 -151 408 -602 890 -18 20 -70 73 -115 119 l-81 83 105 -55 c164 -86 276
-127 405 -151 74 -14 311 -14 369 -1 148 35 147 99 -6 293 -76 97 -357 378
-503 504 -159 136 -442 369 -542 444 -29 21 -53 40 -53 42 0 1 12 -2 28 -8
186 -74 302 -96 476 -93 141 3 240 24 286 63 32 27 33 28 20 67 -19 57 -74
127 -181 229 -167 159 -362 316 -604 485 -49 34 -79 60 -65 56 107 -29 192
-38 300 -33 63 3 124 8 135 11 88 20 120 32 146 57 49 46 30 91 -83 194 -140
127 -396 304 -675 464 -40 23 -73 44 -73 47 0 3 4 3 9 -1 30 -18 205 -25 318
-13 153 17 274 78 257 130 -4 13 -14 34 -23 47 -42 65 -295 249 -516 375 -55
32 -101 59 -102 60 -1 1 41 2 95 2 206 -2 404 54 446 125 15 25 15 31 2 56
-38 74 -222 197 -505 340 l-144 73 49 1 c27 0 56 2 64 4 8 2 29 6 46 9 81 15
168 49 201 79 30 29 33 35 24 59 -5 14 -31 42 -57 62 -90 69 -412 219 -594
276 l-54 18 109 -1 c159 -2 237 13 364 69 100 44 127 88 85 135 -22 24 -148
88 -264 134 -52 20 -108 42 -125 49 -16 7 -60 21 -98 31 -37 10 -66 19 -64 21
2 2 21 6 43 9 159 23 341 103 375 167 17 32 -17 73 -90 107 -77 35 -250 94
-354 120 -65 17 -69 19 -42 25 106 24 159 43 228 80 138 73 187 128 150 168
-38 42 -136 78 -333 121 -108 24 -144 31 -236 42 -54 7 -52 11 8 19 148 20
352 118 411 198 34 45 28 67 -23 93 -67 35 -372 76 -577 79 -51 1 -39 11 30
25 134 28 271 98 370 190 43 39 61 84 46 109 -23 37 -150 60 -351 63 -49 1
-88 3 -88 5 0 2 19 13 43 25 105 54 242 178 247 225 4 36 0 43 -32 60 -27 14
-64 18 -188 19 -85 1 -182 -2 -215 -5 -33 -4 -62 -6 -63 -4 -2 1 16 13 40 25
121 61 282 241 262 292 -13 34 -121 47 -258 32 -28 -3 -67 -8 -86 -9 -65 -7
-135 -18 -197 -31 -35 -7 -63 -11 -63 -10 0 1 27 19 60 39 59 37 156 129 205
196 32 43 48 99 34 116 -13 16 -59 32 -84 29 -11 -2 -47 -6 -80 -9 -65 -5
-299 -51 -315 -61 -23 -14 -8 12 18 30 38 28 153 142 190 191 55 73 71 125 43
153 -33 33 -153 18 -396 -53 -66 -19 -121 -33 -122 -32 -1 1 10 15 25 31 72
77 148 220 137 254 -12 37 -72 42 -180 15 -72 -18 -245 -75 -298 -98 -42 -18
-42 -20 4 49 120 179 98 248 -64 203 -40 -10 -85 -26 -102 -33 -48 -22 -177
-75 -181 -75 -3 0 10 24 28 53 60 94 83 159 67 188 -22 42 -112 18 -310 -82
l-77 -38 20 42 c61 126 67 172 24 183 -45 11 -177 -50 -338 -156 l-86 -57 23
46 c43 85 49 102 49 149 1 45 0 47 -29 50 -40 4 -154 -67 -304 -188 -63 -51
-111 -84 -106 -74 52 123 71 239 40 250 -43 17 -123 -41 -279 -200 -87 -89
-95 -96 -73 -56 32 58 46 104 48 160 4 85 2 90 -32 90 -56 0 -196 -161 -458
-528 -56 -78 -118 -155 -138 -170 -19 -15 -57 -58 -85 -97 -27 -38 -91 -120
-141 -181 l-92 -112 -55 -8 c-81 -11 -242 -12 -264 -1 -46 23 -194 192 -273
313 -65 100 -96 168 -169 372 -139 387 -290 742 -463 1092 -34 69 -74 154 -88
190 -125 313 -432 645 -740 799 -204 102 -431 141 -616 106z m-1903 -7522 c-2
-136 -11 -271 -19 -303 -7 -28 -15 -73 -21 -110 -3 -25 -8 -47 -11 -50 -5 -5
3 95 12 165 2 17 7 64 10 105 3 41 8 91 10 110 4 34 6 104 4 145 0 25 11 105
15 105 2 0 2 -75 0 -167z m5119 147 c3 -11 1 -20 -4 -20 -5 0 -9 9 -9 20 0 11
2 20 4 20 2 0 6 -9 9 -20z m7 -70 c3 -41 0 -64 -7 -56 -4 3 -8 27 -9 53 -3 46
13 49 16 3z m1 -112 c0 -24 2 -52 4 -63 3 -11 7 -54 10 -95 3 -41 8 -88 10
-105 2 -16 7 -64 10 -105 4 -41 9 -79 12 -85 4 -7 2 -7 -5 0 -6 6 -13 34 -17
64 -4 30 -9 63 -11 75 -23 113 -38 356 -22 356 4 0 8 -19 9 -42z m-7732 -16
c-6 -10 -28 -28 -48 -41 -34 -21 -33 -20 9 18 51 46 54 48 39 23z m10371 -33
c30 -26 30 -28 5 -10 -46 31 -84 64 -60 52 11 -6 36 -25 55 -42z m-10460 -33
c0 -2 -8 -10 -17 -17 -16 -13 -17 -12 -4 4 13 16 21 21 21 13z m10521 -13 c13
-16 12 -17 -3 -4 -10 7 -18 15 -18 17 0 8 8 3 21 -13z m-7878 -358 c-3 -9 -8
-14 -10 -11 -3 3 -2 9 2 15 9 16 15 13 8 -4z m4513 -118 c11 -17 19 -41 18
-52 -2 -11 -5 -43 -6 -72 -3 -57 -21 -57 -32 0 -11 62 -16 157 -9 157 5 0 17
-15 29 -33z m-3796 -21 c-9 -41 -19 -58 -29 -52 -11 7 -7 35 9 68 17 36 30 27
20 -16z m-2860 -30 c0 -2 -8 -10 -17 -17 -16 -13 -17 -12 -4 4 13 16 21 21 21
13z m9521 -13 c13 -16 12 -17 -3 -4 -10 7 -18 15 -18 17 0 8 8 3 21 -13z
m-3346 -403 c3 -5 1 -10 -4 -10 -6 0 -11 5 -11 10 0 6 2 10 4 10 3 0 8 -4 11
-10z m-5342 -345 c-9 -19 -18 -33 -21 -31 -4 5 26 66 33 66 3 0 -3 -16 -12
-35z m7847 -10 c0 -5 -5 -3 -10 5 -5 8 -10 20 -10 25 0 6 5 3 10 -5 5 -8 10
-19 10 -25z m-6975 -72 c-5 -51 -18 -90 -50 -158 -44 -89 -69 -181 -79 -283
-3 -35 -12 -61 -28 -80 -42 -49 -55 -64 -313 -377 -142 -170 -276 -332 -298
-359 -23 -27 -47 -56 -54 -65 -15 -19 -16 -10 -4 21 11 25 29 77 201 572 61
176 115 326 121 335 8 13 9 11 4 -7 -8 -27 12 -91 28 -93 68 -9 152 36 247
131 66 65 84 92 138 200 34 69 68 149 74 178 7 28 14 52 16 52 2 0 0 -30 -3
-67z m6095 37 c0 -22 75 -202 99 -240 9 -14 23 -38 31 -55 8 -16 46 -62 85
-100 107 -108 223 -165 260 -128 8 8 16 20 17 26 0 7 2 17 3 22 2 6 4 19 5 30
1 17 3 17 10 -5 4 -14 24 -70 43 -125 20 -55 67 -190 105 -300 39 -110 77
-220 86 -244 9 -24 14 -46 12 -49 -3 -2 -109 99 -237 224 -416 409 -399 392
-400 427 -2 108 -12 145 -71 249 -31 56 -39 81 -44 139 -2 38 -9 90 -13 114
-5 25 -5 42 0 39 5 -3 9 -14 9 -24z m1021 -272 c66 -144 134 -292 151 -328 17
-36 42 -90 56 -120 42 -94 202 -442 232 -505 15 -33 53 -116 85 -185 91 -201
106 -231 141 -304 19 -37 63 -110 97 -160 l64 -91 -46 22 c-25 13 -73 26 -106
29 l-61 6 -39 117 c-21 64 -72 204 -113 311 -41 107 -76 204 -79 215 -3 11 -9
25 -13 30 -3 6 -15 33 -25 60 -16 45 -24 65 -56 140 -4 11 -63 155 -130 320
-128 315 -153 376 -243 594 -31 74 -56 137 -56 140 1 12 23 -33 141 -291z
m-8041 186 c-28 -69 -46 -112 -80 -189 -5 -11 -41 -99 -81 -195 -39 -96 -88
-215 -109 -265 -42 -102 -221 -554 -273 -690 -19 -49 -66 -178 -103 -286 l-69
-197 -55 -6 c-30 -4 -81 -20 -113 -36 l-58 -29 29 37 c65 83 142 215 204 352
107 233 170 371 242 523 25 53 46 99 46 101 0 2 20 46 44 97 46 100 84 182
121 264 13 28 41 88 62 135 22 47 79 172 128 277 91 198 120 246 65 107z m124
-1391 l24 -19 -71 -53 c-43 -33 -67 -46 -62 -35 4 11 18 52 32 93 31 96 35
102 45 64 5 -18 19 -40 32 -50z m4753 -74 c-14 -8 -22 -8 -30 0 -8 8 -3 11 19
11 25 -1 27 -2 11 -11z m275 -4 c49 -3 96 -8 105 -9 10 -2 45 -7 78 -10 98
-12 124 -16 250 -42 125 -25 379 -91 404 -104 11 -6 0 -14 -35 -30 -132 -61
-364 -140 -544 -185 -21 -5 -69 -16 -85 -19 -11 -3 -39 -9 -62 -14 -30 -7 -45
-6 -51 2 -5 6 -40 70 -77 141 -37 72 -82 157 -100 190 -49 94 -49 93 -7 90 20
-2 76 -6 124 -10z m-2288 -77 c-21 -40 -45 -84 -55 -98 -9 -14 -17 -28 -18
-33 0 -4 -8 -22 -18 -40 -9 -17 -27 -50 -38 -72 -18 -35 -25 -40 -52 -38 -99
8 -639 190 -620 209 11 12 302 80 417 99 106 16 164 24 245 31 39 3 71 7 72 8
2 1 26 3 53 5 l51 2 -37 -73z m-1097 -190 c-3 -8 -6 -5 -6 6 -1 11 2 17 5 13
3 -3 4 -12 1 -19z m-1829 -315 c81 -102 108 -144 99 -151 -26 -20 -182 -50
-237 -46 -78 6 -99 15 -161 73 l-64 59 30 23 c43 33 115 106 160 162 31 39 41
46 50 35 7 -7 62 -77 123 -155z m8280 70 c29 -33 75 -78 102 -99 l50 -38 -42
-44 c-62 -63 -109 -84 -188 -85 -62 0 -190 24 -219 42 -10 7 -9 13 7 32 36 42
194 243 206 261 8 14 13 15 21 5 6 -6 35 -40 63 -74z m-9338 -155 c0 -4 -9 -5
-21 -3 -20 4 -20 0 -17 -65 2 -39 2 -70 2 -70 -1 0 -19 7 -40 16 -21 9 -63 16
-95 17 l-57 1 73 41 c40 23 88 53 106 68 31 24 48 22 49 -5z m10283 -31 c32
-21 76 -47 98 -56 l39 -18 -58 -1 c-31 0 -75 -7 -97 -15 l-40 -14 0 66 c0 62
-1 66 -23 65 -18 -1 -20 1 -11 12 6 8 16 11 23 7 6 -4 37 -25 69 -46z m-7448
-124 c-9 -98 -15 -161 -21 -220 l-5 -51 53 -20 c90 -34 298 -98 398 -123 52
-13 96 -24 98 -25 4 -2 -99 -200 -129 -250 -18 -30 -24 -32 -75 -33 -31 0 -79
-3 -108 -5 -28 -3 -87 -8 -131 -11 -94 -7 -181 -14 -250 -20 -27 -2 -86 -7
-130 -10 -44 -3 -93 -8 -110 -10 -16 -2 -63 -7 -102 -11 l-73 -6 15 30 c20 40
13 80 -30 167 -45 91 -114 182 -209 274 -76 73 -80 80 -54 85 7 2 31 6 53 10
70 14 367 86 440 107 155 45 311 121 354 173 7 9 16 16 18 16 3 0 2 -30 -2
-67z m4670 -41 c90 -45 269 -99 515 -156 99 -23 299 -66 305 -66 3 0 -27 -33
-67 -73 -128 -126 -230 -285 -240 -372 -3 -28 -6 -30 -43 -30 -36 1 -176 10
-280 20 -66 6 -204 15 -305 21 -52 3 -120 7 -150 9 -30 2 -116 7 -190 10 -74
4 -140 8 -146 10 -17 5 -126 217 -117 226 5 5 17 10 28 12 88 16 380 115 510
173 22 10 42 18 45 19 41 12 42 15 35 114 -4 53 -8 105 -9 116 -4 34 4 36 37
11 18 -13 50 -33 72 -44z m-7675 -76 c0 -2 -13 -6 -30 -8 -16 -3 -30 -1 -30 4
0 4 14 8 30 8 17 0 30 -2 30 -4z m4597 -3613 c-3 -10 -5 -4 -5 12 0 17 2 24 5
18 2 -7 2 -21 0 -30z"/>
</g>
</svg>
